<?xml version="1.0" encoding="utf-8"?>
<!-- Generator: Adobe Illustrator 27.5.0, SVG Export Plug-In . SVG Version: 6.00 Build 0)  -->
<svg version="1.1" xmlns="http://www.w3.org/2000/svg" xmlns:xlink="http://www.w3.org/1999/xlink" x="0px" y="0px"
	 viewBox="0 0 500 500" style="enable-background:new 0 0 500 500;" xml:space="preserve">
<g id="BACKGROUND">
	<g>
		<rect style="fill:#A71E22;" width="500" height="500"/>
		<g>
			<polygon style="opacity:0.1;fill:#F16722;" points="500,0 500,20.32 304.67,205.87 500,72.68 500,104.33 320.64,213.59 
				500,136.78 500,163.84 331.2,226.09 500,188.43 500,213.29 329.09,242.31 500,237.92 500,262.08 319.86,257.45 500,291.52 
				500,316.54 325.7,274.21 500,343.98 500,371.52 324.33,290.51 500,402.09 500,434.36 311.37,300.49 500,479.68 500,500 
				479.68,500 294.12,304.67 427.32,500 395.67,500 286.41,320.64 363.22,500 336.16,500 273.91,331.2 311.57,500 286.71,500 
				257.69,329.1 262.08,500 237.92,500 242.55,319.85 208.47,500 183.46,500 225.79,325.69 156.01,500 128.48,500 209.49,324.33 
				97.91,500 65.64,500 199.51,311.37 20.32,500 0,500 0,479.68 195.34,294.12 0,427.32 0,395.67 179.36,286.41 0,363.22 0,336.16 
				168.8,273.91 0,311.57 0,286.71 170.9,257.69 0,262.08 0,237.92 180.14,242.55 0,208.47 0,183.46 174.31,225.79 0,156.01 
				0,128.48 175.67,209.49 0,97.91 0,65.64 188.63,199.51 0,20.32 0,0 20.32,0 205.87,195.33 72.68,0 104.33,0 213.59,179.36 
				136.78,0 163.84,0 226.09,168.8 188.43,0 213.29,0 242.31,170.9 237.92,0 262.08,0 257.45,180.14 291.52,0 316.54,0 
				274.21,174.3 343.98,0 371.52,0 290.51,175.67 402.09,0 434.36,0 300.49,188.63 479.68,0 			"/>
			<polygon style="opacity:0.2;fill:#F16722;" points="500,10.67 292.14,208.12 295.52,213.26 299.83,217.65 500,81.15 500,96.13 
				304.37,215.31 308.79,226.28 500,144.39 500,156.38 310.03,226.43 311.1,232.01 313.22,237.27 500,195.6 500,206.19 
				312.26,238.07 314.49,249.69 500,244.93 500,255.07 309.41,250.18 308.17,256.21 308.11,262.36 500,298.65 500,309.34 
				312.97,263.91 308.34,274.8 500,351.52 500,363.81 309.11,275.78 305.93,280.48 303.71,285.7 500,410.38 500,425.79 
				302.46,285.59 295.82,295.38 500,489.34 500,500 489.33,500 291.88,292.14 286.74,295.52 282.35,299.83 418.85,500 403.87,500 
				284.69,304.37 273.72,308.79 355.61,500 343.62,500 273.57,310.03 267.99,311.1 262.73,313.22 304.4,500 293.81,500 
				261.93,312.26 250.31,314.49 255.07,500 244.92,500 249.82,309.41 243.79,308.17 237.64,308.11 201.35,500 190.66,500 
				236.09,312.97 225.2,308.34 148.48,500 136.19,500 224.22,309.11 219.52,305.93 214.3,303.71 89.62,500 74.21,500 214.41,302.46 
				204.62,295.82 10.66,500 0,500 0,489.33 207.86,291.88 204.48,286.74 200.17,282.35 0,418.85 0,403.87 195.63,284.69 
				191.21,273.72 0,355.61 0,343.62 189.97,273.57 188.9,267.99 186.78,262.73 0,304.4 0,293.81 187.74,261.93 185.51,250.31 
				0,255.07 0,244.92 190.59,249.82 191.83,243.79 191.89,237.64 0,201.35 0,190.66 187.03,236.09 191.66,225.2 0,148.48 0,136.19 
				190.89,224.22 194.07,219.52 196.29,214.3 0,89.62 0,74.21 197.53,214.41 204.18,204.62 0,10.66 0,0 10.67,0 208.12,207.86 
				213.26,204.48 217.65,200.17 81.15,0 96.13,0 215.31,195.63 226.28,191.21 144.39,0 156.38,0 226.43,189.97 232.01,188.9 
				237.27,186.78 195.6,0 206.19,0 238.07,187.74 249.69,185.51 244.93,0 255.08,0 250.18,190.59 256.21,191.83 262.36,191.89 
				298.65,0 309.34,0 263.91,187.03 274.8,191.66 351.52,0 363.81,0 275.78,190.89 280.48,194.07 285.7,196.29 410.38,0 425.79,0 
				285.59,197.53 295.38,204.18 489.34,0 500,0 			"/>
		</g>
	</g>
</g>
<g id="OBJECTS">
	<radialGradient id="SVGID_1_" cx="249.9999" cy="249.9999" r="2.000000e-04" gradientUnits="userSpaceOnUse">
		<stop  offset="0" style="stop-color:#FFFFFF"/>
		<stop  offset="0.8776" style="stop-color:#FFFFFF;stop-opacity:0.1224"/>
		<stop  offset="1" style="stop-color:#FFFFFF;stop-opacity:0"/>
	</radialGradient>
	<path style="opacity:0.5;fill:url(#SVGID_1_);" d="M250,250L250,250L250,250L250,250L250,250L250,250L250,250L250,250L250,250
		L250,250z"/>
	<g>
		<g>
			<g>
				<path style="fill:#FFFFFF;" d="M432.68,370.311H81.99c-7.172,0-12.986-5.844-12.986-13.052V194.176
					c0-7.208,5.814-13.052,12.986-13.052h350.69c7.172,0,12.987,5.844,12.987,13.052v163.083
					C445.667,364.468,439.852,370.311,432.68,370.311z"/>
				<path style="opacity:0.7;" d="M418.953,200.418h-5.118L277.18,78.079c-7.652-2.883-23.082-14-25.984-11.153L90.848,200.418
					H67.32c-7.172,0-12.986,5.781-12.986,12.913V374.68c0,7.132,5.814,12.913,12.986,12.913h350.69
					c7.172,0,12.987-5.781,12.987-12.913V213.331C430.997,206.199,426.125,200.418,418.953,200.418z M254.457,70.328
					c1.094-1.073,2.455-1.073,3.51-0.039L407.25,200.418H102.447L254.457,70.328z"/>
				<path style="fill:#F8EBD1;" d="M430.632,370.311H81.917c-7.132,0-12.913-5.782-12.913-12.913V196.049
					c0-7.132,5.781-12.913,12.913-12.913h348.716c7.132,0,12.913,5.782,12.913,12.913v161.349
					C443.546,364.53,437.764,370.311,430.632,370.311z"/>
				<g>
					<path style="fill:#EACE97;" d="M424.065,366.305H83.339c-5.306,0-9.622-4.316-9.622-9.622V201.948
						c0-5.305,4.316-9.622,9.622-9.622h340.727c5.305,0,9.622,4.316,9.622,9.622v154.734
						C433.687,361.988,429.371,366.305,424.065,366.305z M85.987,197.668c-3.176,0-5.76,2.584-5.76,5.76v151.774
						c0,3.176,2.584,5.761,5.761,5.761h335.43c3.176,0,5.761-2.585,5.761-5.761V203.428c0-3.176-2.584-5.76-5.76-5.76H85.987z"/>
				</g>
				<g>
					<path style="fill:#FFFFFF;" d="M429.161,361.209H88.435c-5.306,0-9.622-4.316-9.622-9.622V196.852
						c0-5.305,4.316-9.622,9.622-9.622h340.727c5.305,0,9.621,4.316,9.621,9.622v154.734
						C438.783,356.892,434.467,361.209,429.161,361.209z M90.289,191.001c-3.209,0-5.82,2.611-5.82,5.82v153.715
						c0,3.209,2.611,5.821,5.821,5.821h338.903c3.209,0,5.821-2.611,5.821-5.821V196.821c0-3.209-2.611-5.82-5.82-5.82H90.289z"/>
				</g>
				<g>
					<path style="fill:#A71E22;" d="M426.637,363.713H85.912c-5.306,0-9.623-4.316-9.623-9.622V199.356
						c0-5.305,4.316-9.622,9.622-9.622h340.727c5.305,0,9.622,4.316,9.622,9.622V354.09
						C436.26,359.396,431.943,363.713,426.637,363.713z M85.911,193.505c-3.226,0-5.851,2.625-5.851,5.851V354.09
						c0,3.227,2.625,5.852,5.852,5.852h340.725c3.227,0,5.852-2.625,5.852-5.852V199.356c0-3.226-2.624-5.851-5.851-5.851H85.911z"
						/>
				</g>
			</g>
			<g>
				<g>
					
						<text transform="matrix(1 0 0 1 218.0664 239.1528)" style="fill:#EACE97; font-family:'BebasNeueBold'; font-size:27.9034px; letter-spacing:1;">WE ARE</text>
				</g>
				<g>
					
						<text transform="matrix(1 0 0 1 219.0088 237.8569)" style="fill:#A71E22; font-family:'BebasNeueBold'; font-size:27.9034px; letter-spacing:1;">WE ARE</text>
				</g>
				
					<text transform="matrix(1 0 0 1 91.0913 327.041)" style="fill:#EACE97; font-family:'Montserrat-Bold'; font-size:107.8197px; letter-spacing:-2;">OPEN</text>
				
					<text transform="matrix(1 0 0 1 96.4331 321.6992)" style="fill:#A71E22; font-family:'Montserrat-Bold'; font-size:107.8197px; letter-spacing:-2;">OPEN</text>
			</g>
		</g>
		<g>
			<g>
				<g>
					<path style="fill:#333333;" d="M94.033,180.28c-0.692,0-1.378-0.303-1.843-0.886c-0.812-1.017-0.646-2.5,0.371-3.312
						L250.897,66.699c3.166-2.528,7.589-2.528,10.754,0l158.26,109.322c1.017,0.812,1.184,2.295,0.371,3.312
						c-0.811,1.016-2.295,1.183-3.311,0.371L258.711,70.382c-1.436-1.145-3.44-1.145-4.873,0L95.502,179.765
						C95.067,180.112,94.548,180.28,94.033,180.28z"/>
				</g>
			</g>
			<g>
				<g>
					<path d="M254.926,69.766c-0.377,0.141-0.745,0.339-1.084,0.613L95.498,179.764c-0.434,0.349-0.952,0.518-1.461,0.518
						c-0.481,0-0.961-0.141-1.367-0.434c0.047-0.019,0.085-0.057,0.123-0.085L251.128,70.379
						C252.231,69.502,253.663,69.304,254.926,69.766z"/>
					<path style="opacity:0.3;fill:#F8EBD1;" d="M420.284,179.33c-0.782,0.98-2.196,1.178-3.205,0.452
						c0.179-0.113,0.349-0.273,0.49-0.452c0.811-1.018,0.65-2.498-0.368-3.309L258.942,66.703c-1.207-0.971-2.583-1.565-4.016-1.791
						c2.319-0.377,4.77,0.217,6.721,1.791l158.26,109.319C420.925,176.832,421.095,178.312,420.284,179.33z"/>
				</g>
			</g>
			<path style="fill:#F8EBD1;" d="M102.992,181.121H84.205c0-1.461,0.339-2.847,0.933-4.082c1.518-3.139,4.732-5.307,8.465-5.307
				c3.723,0,6.938,2.168,8.455,5.307C102.662,178.274,102.992,179.66,102.992,181.121z"/>
			<path style="fill:#EACE97;" d="M102.992,181.121H84.205c0-1.461,0.339-2.847,0.933-4.082h16.92
				C102.662,178.274,102.992,179.66,102.992,181.121z"/>
			<path style="fill:#F8EBD1;" d="M428.344,181.121h-18.787c0-1.461,0.33-2.847,0.933-4.082c1.518-3.139,4.732-5.307,8.465-5.307
				c3.723,0,6.938,2.168,8.455,5.307C428.005,178.274,428.344,179.66,428.344,181.121z"/>
			<path style="fill:#EACE97;" d="M428.344,181.121h-18.787c0-1.461,0.33-2.847,0.933-4.082h16.92
				C428.005,178.274,428.344,179.66,428.344,181.121z"/>
		</g>
		<g>
			
				<ellipse transform="matrix(0.2306 -0.973 0.973 0.2306 132.9187 300.119)" style="fill:#F8EBD1;" cx="256.236" cy="66.01" rx="8.526" ry="8.526"/>
			<path style="fill:#EACE97;" d="M264.758,66.015c0,4.699-3.811,8.52-8.52,8.52c-4.71,0-8.531-3.822-8.531-8.52
				c0-0.606,0.065-1.191,0.184-1.765c0.812,3.865,4.244,6.766,8.347,6.766c4.103,0,7.524-2.901,8.336-6.766
				C264.693,64.824,264.758,65.409,264.758,66.015z"/>
		</g>
	</g>
</g>
<g id="TEXTURE">
</g>
</svg>
