<?xml version="1.0" encoding="utf-8"?>
<!-- Generator: Adobe Illustrator 27.5.0, SVG Export Plug-In . SVG Version: 6.00 Build 0)  -->
<svg version="1.1" xmlns="http://www.w3.org/2000/svg" xmlns:xlink="http://www.w3.org/1999/xlink" x="0px" y="0px"
	 viewBox="0 0 500 500" style="enable-background:new 0 0 500 500;" xml:space="preserve">
<g id="BACKGROUND">
	<rect style="fill:#D5E9F2;" width="500" height="500"/>
</g>
<g id="OBJECTS">
	<g style="opacity:0.28;">
		<path style="fill:#06687F;" d="M261.751,414.459c-50.956,13.265-101.934,5.62-149.439-17.089
			c-13.969-6.678-27.56-15.073-37.04-27.315c-15.353-19.825-17.756-47.124-13.307-71.801c3.558-19.735,11.086-39.217,9.246-59.186
			c-2.537-27.539-22.61-51.837-21.961-79.485c0.51-21.718,13.935-41.148,29.719-56.075c28.325-26.786,70.202-43.621,106.812-30.221
			c9.404,3.442,18.125,8.733,27.808,11.29c24.447,6.456,49.466-5.363,74.162-10.786c36.585-8.034,76.169-1.452,108.186,17.988
			c11.331,6.88,22.052,15.695,27.833,27.624c11.702,24.149,0.293,53.004,3.863,79.601c3.711,27.649,23.334,50.903,28.764,78.266
			c4.04,20.358-0.213,41.848-9.579,60.37c-9.367,18.521-23.602,34.253-39.596,47.48c-23.063,19.073-51.602,33.688-81.511,32.624
			C304.21,416.979,282.349,408.252,261.751,414.459"/>
	</g>
	<g>
		<path style="fill:#EDAE9F;" d="M146.505,226.156c11.288,17.304,10.746,32.705-3.269,50.311c7.193,3.425,17.218,9.82,23.319,14.943
			c2.806,2.356,5.517,4.905,8.785,6.563c7.773,3.943,23.775-0.018,29.206-6.835c-6.523-7.129-14.352-15.676-13.698-25.317
			c0.654-9.641,3.882-18.897,7.08-28.016"/>
	</g>
	<g>
		<path style="fill:#06687F;" d="M221.65,285.147l0.009-0.398c-8.872-1.575-17.529-4.358-25.644-8.273
			c-1.397-0.674-2.962-1.399-4.439-0.926c-1.126,0.361-1.92,1.337-2.736,2.193c-5.57,5.842-14.453,6.711-22.226,4.535
			c-7.773-2.177-14.56-6.886-19.84-12.992l-0.221,0.499c-9.845,3.367-19.69,6.734-29.535,10.101
			c-1.046,0.358-2.144,0.773-3.059,1.379c0.064,0.014,0.126,0.017,0.191,0.034l0.011,0.489
			c-2.005,85.203,9.866,91.923,13.522,122.338c23.77,9.574,48.292,15.337,73.15,16.581c2.112-0.047,4.225-0.093,6.338-0.141
			C208.415,376.909,221.959,368.695,221.65,285.147z"/>
	</g>
	<path style="fill:#E0A194;" d="M149.826,232.048c0,0,4.684,9.285,4.875,19.517c0,0,22.317,15.99,40.142-4.496l2.522-8.014"/>
	<g>
		<g>
			<g id="XMLID_225_">
				<g id="XMLID_244_">
					<path id="XMLID_252_" d="M259.557,472.254c-0.408,0.418-0.759,0.881-1.047,1.373l-0.44-0.227
						c-0.065-0.281-0.331-0.477-0.625-0.441c-0.313,0.037-0.536,0.32-0.501,0.633c0.037,0.315,0.322,0.537,0.634,0.5
						c0.064-0.006,0.12-0.023,0.174-0.049l0.427,0.223c-0.236,0.523-0.408,1.076-0.51,1.648l0.708,0.125
						c0.216-1.236,0.804-2.371,1.693-3.285L259.557,472.254z"/>
					<path id="XMLID_251_" d="M264.749,470.076c-0.163,0-0.323,0.006-0.482,0.016l-0.07-0.592c0.178-0.143,0.281-0.369,0.251-0.611
						c-0.042-0.371-0.38-0.637-0.752-0.594c-0.371,0.045-0.637,0.381-0.593,0.754c0.027,0.24,0.18,0.436,0.383,0.533l0.068,0.59
						c-0.675,0.109-1.327,0.314-1.947,0.611l0.309,0.646c0.885-0.422,1.836-0.637,2.834-0.637c0.469,0,0.939,0.049,1.395,0.148
						l0.151-0.701C265.789,470.131,265.27,470.076,264.749,470.076z"/>
					<path id="XMLID_250_" d="M270.993,472.484c0.314-0.037,0.536-0.322,0.497-0.635c-0.037-0.313-0.321-0.535-0.636-0.498
						c-0.291,0.037-0.506,0.287-0.5,0.576l-0.394,0.344c-0.395-0.406-0.843-0.77-1.332-1.078l-0.383,0.607
						c1.073,0.676,1.912,1.633,2.426,2.766l0.652-0.295c-0.236-0.524-0.536-1.014-0.891-1.461l0.381-0.332
						C270.871,472.49,270.933,472.494,270.993,472.484z"/>
					<path id="XMLID_249_" d="M264.231,479.732c-0.366,0.022-0.733,0.033-1.096,0.033c-0.831,0-1.639-0.059-2.345-0.17
						c-0.369-0.059-0.8-0.147-1.2-0.277c0.99,1.762,2.902,2.957,5.097,2.957c2.701,0,4.978-1.813,5.628-4.26
						c-0.645,0.426-1.425,0.781-2.326,1.061C266.873,479.426,265.573,479.652,264.231,479.732z"/>
					<path id="XMLID_245_" d="M264.749,471.51c-3.171,0-5.752,2.523-5.752,5.623c0,0.402,0.045,0.803,0.13,1.191
						c0.637,0.459,2.56,0.844,5.058,0.693c2.725-0.166,5.011-0.906,6.311-2.043c-0.003-0.184-0.018-0.369-0.042-0.549
						C270.096,473.623,267.642,471.51,264.749,471.51z M262.705,477.672c-0.964,0-1.749-0.785-1.749-1.748
						c0-0.967,0.785-1.752,1.749-1.752c0.965,0,1.75,0.785,1.75,1.752C264.455,476.887,263.67,477.672,262.705,477.672z
						 M267.188,476.815c-0.709,0-1.288-0.578-1.288-1.287c0-0.709,0.579-1.287,1.288-1.287c0.71,0,1.286,0.578,1.286,1.287
						C268.474,476.236,267.897,476.815,267.188,476.815z"/>
				</g>
				<path id="XMLID_242_" d="M279.888,473.277c-0.279-0.111-0.763-0.293-1.308-0.227c-0.521,0.066-0.799,0.322-0.799,0.953v0.818
					h2.108v1.625h-2.108v5.16h-1.827v-5.16h-1.268v-1.625h1.268v-0.84c0-1.59,0.847-2.633,2.43-2.633
					c0.607,0,1.094,0.115,1.504,0.291V473.277z"/>
				<path id="XMLID_240_" d="M284.335,476.428c-0.167-0.027-0.338-0.043-0.497-0.043c-0.847,0-1.429,0.518-1.429,1.525v3.697h-1.827
					v-6.785h1.772v0.742c0.427-0.637,1.077-0.924,1.91-0.924c0.392,0,0.802,0.121,1.036,0.318L284.335,476.428z"/>
				<path id="XMLID_237_" d="M291.588,478.205c0,0.209-0.015,0.461-0.035,0.615h-4.809c0.195,0.98,0.881,1.408,1.742,1.408
					c0.589,0,1.225-0.238,1.716-0.652l1.072,1.176c-0.771,0.709-1.752,1.031-2.892,1.031c-2.08,0-3.523-1.416-3.523-3.551
					c0-2.135,1.4-3.592,3.431-3.592C290.243,474.641,291.581,476.09,291.588,478.205z M286.751,477.574h3.003
					c-0.168-0.867-0.693-1.357-1.477-1.357C287.416,476.217,286.912,476.734,286.751,477.574z"/>
				<path id="XMLID_234_" d="M298.829,478.205c0,0.209-0.015,0.461-0.035,0.615h-4.811c0.196,0.98,0.884,1.408,1.744,1.408
					c0.588,0,1.225-0.238,1.715-0.652l1.071,1.176c-0.771,0.709-1.749,1.031-2.892,1.031c-2.08,0-3.522-1.416-3.522-3.551
					c0-2.135,1.4-3.592,3.432-3.592C297.483,474.641,298.821,476.09,298.829,478.205z M293.99,477.574h3.004
					c-0.168-0.867-0.694-1.357-1.477-1.357C294.655,476.217,294.15,476.734,293.99,477.574z"/>
				<path id="XMLID_231_" d="M306.724,478.211c0,2.039-1.415,3.572-3.285,3.572c-0.909,0-1.554-0.357-1.995-0.883v3.508h-1.82
					v-9.586h1.785v0.75c0.441-0.553,1.092-0.932,2.022-0.932C305.309,474.641,306.724,476.174,306.724,478.211z M301.352,478.211
					c0,1.072,0.708,1.871,1.744,1.871c1.077,0,1.75-0.834,1.75-1.871c0-1.035-0.673-1.869-1.75-1.869
					C302.06,476.342,301.352,477.141,301.352,478.211z"/>
				<path id="XMLID_228_" d="M309.659,472.603c0,0.658-0.512,1.162-1.169,1.162c-0.66,0-1.163-0.504-1.163-1.162
					c0-0.658,0.503-1.176,1.163-1.176C309.147,471.428,309.659,471.945,309.659,472.603z M309.413,481.607h-1.827v-6.785h1.827
					V481.607z"/>
				<path id="XMLID_226_" d="M312.462,477.238l2.557-2.416h2.239l-3.29,3.193l3.313,3.592h-2.248l-2.57-2.744v2.744h-1.827v-10.082
					h1.827V477.238z"/>
			</g>
			<g>
				<path d="M187.957,481.547v-0.998c-0.499,0.68-1.315,1.164-2.258,1.164c-1.746,0-2.979-1.33-2.979-3.506
					c0-2.135,1.22-3.52,2.979-3.52c0.9,0,1.718,0.443,2.258,1.178v-3.561h1.04v9.242H187.957z M187.957,479.73v-3.033
					c-0.374-0.582-1.178-1.082-2.009-1.082c-1.344,0-2.147,1.109-2.147,2.592c0,1.483,0.804,2.576,2.147,2.576
					C186.779,480.783,187.583,480.313,187.957,479.73z"/>
				<path d="M190.341,478.193c0-1.939,1.386-3.506,3.298-3.506c2.022,0,3.214,1.58,3.214,3.588v0.264h-5.417
					c0.083,1.262,0.97,2.314,2.41,2.314c0.763,0,1.538-0.305,2.064-0.846l0.499,0.68c-0.665,0.664-1.565,1.025-2.66,1.025
					C191.768,481.713,190.341,480.285,190.341,478.193z M193.624,475.547c-1.427,0-2.134,1.205-2.189,2.23h4.393
					C195.813,476.779,195.148,475.547,193.624,475.547z"/>
				<path d="M197.601,480.66l0.541-0.748c0.443,0.512,1.288,0.955,2.202,0.955c1.026,0,1.58-0.484,1.58-1.15
					c0-1.621-4.143-0.623-4.143-3.103c0-1.039,0.9-1.926,2.493-1.926c1.137,0,1.94,0.43,2.482,0.969l-0.485,0.721
					c-0.401-0.484-1.136-0.844-1.996-0.844c-0.914,0-1.481,0.457-1.481,1.053c0,1.469,4.142,0.498,4.142,3.104
					c0,1.123-0.9,2.023-2.633,2.023C199.208,481.713,198.28,481.381,197.601,480.66z"/>
				<path d="M204.1,473.205c0-0.389,0.318-0.707,0.692-0.707c0.388,0,0.707,0.318,0.707,0.707c0,0.387-0.319,0.691-0.707,0.691
					C204.418,473.897,204.1,473.592,204.1,473.205z M204.279,481.547v-6.693h1.04v6.693H204.279z"/>
				<path d="M207.037,483.264l0.525-0.775c0.555,0.666,1.22,0.914,2.176,0.914c1.108,0,2.147-0.539,2.147-2.008v-0.957
					c-0.484,0.68-1.302,1.191-2.244,1.191c-1.746,0-2.979-1.303-2.979-3.463c0-2.148,1.22-3.478,2.979-3.478
					c0.9,0,1.704,0.443,2.244,1.178v-1.012h1.04v6.498c0,2.217-1.553,2.91-3.188,2.91
					C208.602,484.262,207.826,484.039,207.037,483.264z M211.886,479.621v-2.924c-0.359-0.582-1.163-1.082-1.995-1.082
					c-1.344,0-2.147,1.066-2.147,2.551c0,1.469,0.804,2.549,2.147,2.549C210.723,480.715,211.526,480.203,211.886,479.621z"/>
				<path d="M219.175,481.547v-4.379c0-1.178-0.597-1.553-1.497-1.553c-0.817,0-1.594,0.5-1.981,1.039v4.893h-1.039v-6.693h1.039
					v0.971c0.471-0.555,1.386-1.137,2.384-1.137c1.399,0,2.134,0.707,2.134,2.162v4.697H219.175z"/>
				<path d="M221.558,478.193c0-1.939,1.386-3.506,3.298-3.506c2.022,0,3.215,1.58,3.215,3.588v0.264h-5.418
					c0.083,1.262,0.97,2.314,2.41,2.314c0.763,0,1.538-0.305,2.065-0.846l0.498,0.68c-0.665,0.664-1.566,1.025-2.66,1.025
					C222.985,481.713,221.558,480.285,221.558,478.193z M224.841,475.547c-1.427,0-2.134,1.205-2.188,2.23h4.393
					C227.03,476.779,226.365,475.547,224.841,475.547z"/>
				<path d="M234.25,481.547v-0.998c-0.499,0.68-1.316,1.164-2.259,1.164c-1.746,0-2.98-1.33-2.98-3.506
					c0-2.135,1.22-3.52,2.98-3.52c0.9,0,1.719,0.443,2.259,1.178v-3.561h1.039v9.242H234.25z M234.25,479.73v-3.033
					c-0.375-0.582-1.178-1.082-2.009-1.082c-1.345,0-2.148,1.109-2.148,2.592c0,1.483,0.804,2.576,2.148,2.576
					C233.072,480.783,233.875,480.313,234.25,479.73z"/>
				<path d="M240.249,481.547v-9.242h1.039v3.561c0.541-0.734,1.345-1.178,2.259-1.178c1.745,0,2.979,1.385,2.979,3.52
					c0,2.176-1.234,3.506-2.979,3.506c-0.942,0-1.76-0.484-2.259-1.164v0.998H240.249z M243.283,480.783
					c1.358,0,2.162-1.094,2.162-2.576c0-1.482-0.804-2.592-2.162-2.592c-0.817,0-1.635,0.5-1.995,1.082v3.033
					C241.648,480.313,242.466,480.783,243.283,480.783z"/>
				<path d="M247.662,483.223c0.152,0.07,0.402,0.111,0.567,0.111c0.458,0,0.763-0.152,0.998-0.707l0.443-1.012l-2.799-6.762h1.122
					l2.231,5.486l2.217-5.486h1.136l-3.353,8.051c-0.402,0.969-1.081,1.344-1.968,1.357c-0.222,0-0.568-0.041-0.763-0.098
					L247.662,483.223z"/>
			</g>
		</g>
	</g>
	<path style="fill:none;" d="M192.316,455.019h0.02c-0.007-0.016-0.014-0.034-0.021-0.04
		C192.314,454.993,192.316,455.005,192.316,455.019z"/>
	<g>
		<path style="fill:#F9BAA8;" d="M191.565,164.861c8.279-0.167,15.317,6.7,17.837,14.315c2.52,7.615,1.553,15.826,0.56,23.744
			c-0.608,4.852-1.216,9.704-1.824,14.557c-0.84,6.699-1.733,13.569-4.999,19.526c-3.279,5.981-8.689,10.563-13.98,15.005
			c-1.71,1.435-3.501,2.913-5.695,3.476c-2.746,0.705-5.654-0.139-8.32-1.109c-15.163-5.518-29.416-16.847-32.373-32.191
			c-1.456-7.556-1.033-56.155-5.265-62.681"/>
	</g>
	<g>
		<path style="fill:#32303E;" d="M142,166.817c-6.953-6.21-11.203-15.71-9.984-24.952c1.219-9.242,8.449-17.704,17.64-19.26
			c2.155-0.365,4.374-0.371,6.482-0.945c4.803-1.307,8.384-5.34,12.959-7.302c7.769-3.334,16.891-0.088,23.74,4.868
			c6.406,4.635,11.839,10.974,14.08,18.557c2.241,7.583,0.862,16.46-4.615,22.163"/>
	</g>
	<g>
		<path style="fill:#E0A194;" d="M181.648,202.792c1.216,6.074,2.854,12.062,4.898,17.909c-3.029,0.728-6.13,1.156-9.242,1.276
			C177.58,219.863,181.371,204.907,181.648,202.792"/>
	</g>
	<g>
		<path style="fill:#32303E;" d="M169.053,202.28c-4.471,3.165-10.024,3.533-14.718,0.615c-0.485-0.302-0.93,0.464-0.447,0.764
			c4.947,3.075,10.891,2.727,15.612-0.615C169.961,202.718,169.519,201.95,169.053,202.28L169.053,202.28z"/>
	</g>
	<g>
		<path style="fill:#32303E;" d="M170.205,189.647c-7.066-2.079-14.589-1.112-20.93,2.622c-0.982,0.578-0.024,2.068,0.958,1.489
			c5.948-3.502,12.959-4.331,19.574-2.385C170.904,191.696,171.294,189.968,170.205,189.647L170.205,189.647z"/>
	</g>
	<g>
		<path style="fill:#32303E;" d="M203.904,201.638c-4.471,3.166-10.024,3.533-14.718,0.615c-0.485-0.302-0.93,0.464-0.447,0.764
			c4.947,3.075,10.891,2.727,15.612-0.615C204.812,202.076,204.37,201.308,203.904,201.638L203.904,201.638z"/>
	</g>
	<path style="fill:#FFFFFF;stroke:#FF3333;stroke-miterlimit:10;" d="M169.554,230.147l22.22-1.371
		c0.334-0.021,0.555,0.337,0.386,0.625c-1.085,1.848-4.511,6.951-9.887,8.17c-5.662,1.284-11.313-4.734-13.013-6.741
		C169.038,230.568,169.212,230.169,169.554,230.147z"/>
	<path d="M179.831,247.435c-0.393,1.583-2.875,2.33-5.545,1.668c-2.67-0.662-4.516-2.482-4.124-4.065
		c0.393-1.583,2.875-2.33,5.545-1.668C178.378,244.032,180.224,245.852,179.831,247.435z"/>
	<circle style="opacity:0.51;fill:#F79292;" cx="154.972" cy="220.408" r="5.748"/>
	<path style="opacity:0.51;fill:#F79292;" d="M207.282,216.933c0,3.175-2.574,5.748-5.748,5.748s-5.748-2.574-5.748-5.748
		c0-3.175,2.574-5.748,5.748-5.748S207.282,213.758,207.282,216.933z"/>
	<g>
		<path style="fill:#075E6D;" d="M149.257,267.555c2.305,2.264,4.029,5.064,6.333,7.328c3.707,3.642,5.651,5.019,8.127,6.119
			c0.47,0.209,3.315,1.339,4.474,1.622c2.85,0.695,3.148,0.152,2.968,0.898c-1.441,5.975-6.84,12.304-10.535,17.216
			c-0.182,0.242-0.385,0.495-0.674,0.585c-0.589,0.183-1.121-0.384-1.478-0.887c-6.514-9.176-13.153-18.626-19.032-28.22
			C142.012,271.643,147.345,269.134,149.257,267.555"/>
	</g>
	<g>
		<path style="fill:#075E6D;" d="M192.391,274.047c-2.257,1.803-2.276,2.733-4.533,4.535c-3.63,2.899-5.369,3.286-9.816,4.349
			c-0.444,0.106-1.35,0.269-2.634,0.41c-2.309,0.253-3.65-0.554-3.584-0.004c0.653,5.515,5.742,13.362,8.479,18.149
			c0.135,0.236,0.287,0.484,0.531,0.594c0.498,0.224,1.024-0.232,1.389-0.648c6.665-7.59,12.723-14.452,18.874-22.482
			C198.827,277.322,193.567,276.099,192.391,274.047"/>
	</g>
	<path style="fill:#E0A194;" d="M165.553,156.636c0,0,0.556,14.588,9.574,21.194c9.609,7.039,22.235,11.094,25.905,17.092
		c3.67,5.998-15.82-36.432-15.82-36.432l-10.393-6.469"/>
	<g>
		<path style="fill:#32303E;" d="M209.596,189.047c-6.793-2.848-14.376-2.719-21.092,0.29c-1.04,0.466-0.253,2.052,0.788,1.586
			c6.299-2.822,13.359-2.871,19.718-0.205C210.063,191.16,210.642,189.486,209.596,189.047L209.596,189.047z"/>
	</g>
	<path style="fill:none;stroke:#000000;stroke-miterlimit:10;" d="M135.978,217.859c0,0,12.331,22.586,37.988,28.377"/>
	<g>
		<g>
			<path d="M133.135,199.622c0.947-14.41,1.682-32.293,11.798-43.704c8.958-10.104,24.71-14.346,37.677-11.412
				c8.538,1.932,17.748,6.486,24.019,12.733c8.136,8.104,9.748,20.07,10.23,31.024c0.141,3.205,5.142,3.222,5,0
				c-0.443-10.066-1.739-20.849-7.484-29.43c-4.256-6.358-10.533-10.551-17.185-14.085c-18.881-10.029-45.301-7.66-58.375,10.903
				c-8.774,12.457-9.716,29.297-10.68,43.972C127.924,202.835,132.925,202.822,133.135,199.622L133.135,199.622z"/>
		</g>
	</g>
	<g>
		<path style="fill:#32303E;" d="M170.966,165.361c3.926,10.613,17.845,19.24,24.583,28.331c9.574,12.918,13.851,37.139,6.18,59.918
			c10.46-12.296,14.381-31.403,17.241-40.171c1.33-4.077,1.759-8.508,2.138-12.78c0.45-5.072,0.477-9.881-0.555-14.868
			c-2.708-13.092-7.57-26.624-18.139-34.811c-5.671-4.393-8.465-6.692-15.358-8.677c-3.71-1.069-10.941-1.815-14.768-1.306
			c-13.627,1.811-28.658,9.216-34.78,22.56c-6.121,13.344-6.348,28.604-5.275,43.247c0.542,7.393,1.905,11.839,3.049,19.163
			c1.267,8.108,4.99,20.964,14.652,26.929c-6.649-13.986-6.39-32.49,1.454-45.842C159.233,193.702,169.203,180.747,170.966,165.361"
			/>
	</g>
	<path style="fill:#075E6D;" d="M133.561,223.479L133.561,223.479c-3.759,0.399-7.16-2.35-7.559-6.109l-2.132-20.098
		c-0.399-3.759,2.35-7.16,6.109-7.559l0,0c3.759-0.399,7.16,2.35,7.559,6.109l2.132,20.098
		C140.069,219.678,137.32,223.08,133.561,223.479z"/>
	<path style="fill:#075E6D;" d="M220.414,223.574L220.414,223.574c-3.78,0-6.872-3.092-6.872-6.872v-20.21
		c0-3.78,3.093-6.872,6.872-6.872l0,0c3.78,0,6.872,3.092,6.872,6.872v20.21C227.287,220.481,224.194,223.574,220.414,223.574z"/>
	<g>
		
			<ellipse transform="matrix(0.5898 -0.8076 0.8076 0.5898 -66.8321 326.9702)" style="fill:#FCC265;" cx="288.431" cy="229.27" rx="16.951" ry="16.951"/>
	</g>
	<g>
		
			<ellipse transform="matrix(0.2652 -0.9642 0.9642 0.2652 -59.8919 485.2784)" style="fill:#FCC265;" cx="288.431" cy="281.933" rx="16.951" ry="16.951"/>
	</g>
	<path style="fill:#FCC265;" d="M174.845,287.448c0,1.67-1.353,3.023-3.023,3.023c-1.67,0-3.023-1.354-3.023-3.023
		s1.354-3.023,3.023-3.023C173.492,284.424,174.845,285.778,174.845,287.448z"/>
	<path style="fill:#FCC265;" d="M174.845,307.067c0,1.67-1.353,3.023-3.023,3.023c-1.67,0-3.023-1.354-3.023-3.023
		c0-1.67,1.354-3.023,3.023-3.023C173.492,304.044,174.845,305.398,174.845,307.067z"/>
	<path style="fill:#FCC265;" d="M174.845,326.687c0,1.67-1.353,3.023-3.023,3.023c-1.67,0-3.023-1.353-3.023-3.023
		c0-1.67,1.354-3.023,3.023-3.023C173.492,323.664,174.845,325.018,174.845,326.687z"/>
	<path style="fill:#FCC265;" d="M174.845,346.307c0,1.67-1.353,3.023-3.023,3.023c-1.67,0-3.023-1.353-3.023-3.023
		c0-1.67,1.354-3.023,3.023-3.023C173.492,343.284,174.845,344.637,174.845,346.307z"/>
	<path style="fill:#FCC265;" d="M174.845,385.547c0,1.67-1.353,3.023-3.023,3.023c-1.67,0-3.023-1.353-3.023-3.023
		c0-1.67,1.354-3.023,3.023-3.023C173.492,382.524,174.845,383.877,174.845,385.547z"/>
	<path style="fill:#FCC265;" d="M174.845,405.167c0,1.67-1.353,3.023-3.023,3.023c-1.67,0-3.023-1.354-3.023-3.023
		c0-1.67,1.354-3.023,3.023-3.023C173.492,402.143,174.845,403.497,174.845,405.167z"/>
	<g>
		<circle style="fill:#FCC265;" cx="288.431" cy="334.595" r="16.951"/>
	</g>
	<path style="fill:#0A6372;" d="M118.904,361.311c0,0,9.13,10.6,28.006,8.718c18.876-1.883,26.022-3.915,42.067,0
		c16.045,3.915,20.764,2.028,20.764,2.028s-5.888,10.173-22.562,9.266c-16.674-0.907-22.961-0.12-37.573,5.303
		c-13.264,4.922-31.078-0.633-37.045-12.657"/>
	<g>
		<path style="fill:#075E6D;" d="M112.312,397.37c3.433,1.641,6.885,3.194,10.353,4.675c-5.187-26.433-6.908-53.512-8.593-80.441
			c-0.726-11.606-1.452-23.212-2.178-34.818c-0.079-1.264-0.146-2.594,0.407-3.734c0.367-0.757,0.96-1.326,1.656-1.787
			c-5.202-1.169-9.267,4.528-11.631,9.381c-9.491,19.485-19.017,39.059-25.525,59.732c-1.64,5.209-3.082,10.501-4.277,15.846
			c0.866,1.305,1.78,2.583,2.747,3.831C84.752,382.297,98.343,390.692,112.312,397.37z"/>
	</g>
	<g>
		<path style="fill:#075E6D;" d="M112.302,283.051c-0.553,1.14-0.486,2.469-0.407,3.734c0.726,11.606,1.452,23.212,2.178,34.818
			c1.684,26.93,3.406,54.009,8.593,80.441c1.668,0.713,3.341,1.405,5.016,2.08c-3.656-30.415-15.527-37.135-13.522-122.338
			l-0.011-0.489c-0.065-0.017-0.127-0.019-0.191-0.034C113.262,281.725,112.669,282.295,112.302,283.051z"/>
	</g>
	<g>
		<path style="fill:#075E6D;" d="M259.007,353.737c-6.508-20.673-16.034-40.247-25.525-59.732
			c-2.393-4.913-6.528-10.703-11.822-9.347l-0.002,0.091c0.92,0.163,1.839,0.327,2.763,0.464c1.095,0.162,2.302,0.365,3.002,1.223
			c0.544,0.667,0.65,1.579,0.73,2.436c1.586,16.813,2.164,33.766,0.677,50.588c-0.448,5.069-1.083,10.119-1.717,15.169
			c-2.573,20.473-5.147,40.945-7.72,61.417c-0.126,1.003-0.273,2.058-0.893,2.857c-1.027,1.324-2.936,1.475-4.612,1.514
			c-2.24,0.052-4.48,0.098-6.72,0.15c-0.003,0.118-0.007,0.236-0.01,0.355c18.093,0.344,36.344-1.711,54.592-6.461
			c1.561-0.47,3.129-0.845,4.704-1.154C268.434,393.296,265.057,372.954,259.007,353.737z"/>
	</g>
	<g>
		<path style="fill:#075E6D;" d="M207.17,420.565c2.24-0.051,4.48-0.097,6.72-0.15c1.676-0.039,3.585-0.19,4.612-1.514
			c0.62-0.798,0.767-1.854,0.893-2.857c2.573-20.472,5.147-40.945,7.72-61.417c0.635-5.049,1.269-10.1,1.717-15.169
			c1.487-16.822,0.909-33.775-0.677-50.588c-0.081-0.857-0.186-1.769-0.73-2.436c-0.7-0.858-1.907-1.06-3.002-1.223
			c-0.924-0.137-1.844-0.3-2.763-0.464l-0.009,0.398C221.959,368.695,208.415,376.909,207.17,420.565z"/>
	</g>
	<path style="fill:#FCC265;" d="M174.845,365.927c0,1.67-1.353,3.023-3.023,3.023c-1.67,0-3.023-1.354-3.023-3.023
		c0-1.67,1.354-3.023,3.023-3.023C173.492,362.904,174.845,364.257,174.845,365.927z"/>
	<g>
		<path style="fill:#06687F;" d="M418.82,177.36H272.921c-12.659,0-22.921-10.262-22.921-22.921l0,0
			c0-12.659,10.262-22.921,22.921-22.921H418.82c12.659,0,22.921,10.262,22.921,22.921l0,0
			C441.742,167.097,431.479,177.36,418.82,177.36z"/>
	</g>
	<text transform="matrix(1 0 0 1 256.2173 165.5956)" style="fill:#D5E9F2; font-family:'Rubik-Regular'; font-size:28.8653px;">CONTACT US!</text>
	<text transform="matrix(1 0 0 1 316.262 234.1491)" style="fill:#075E6D; font-family:'Rubik-Regular'; font-size:18.2554px;">e-mail adress</text>
	<g>
		<text transform="matrix(1 0 0 1 316.2621 288.4063)" style="fill:#075E6D; font-family:'Rubik-Regular'; font-size:18.2554px;">telephone</text>
	</g>
	<g>
		<text transform="matrix(1 0 0 1 316.2621 341.5772)" style="fill:#075E6D; font-family:'Rubik-Regular'; font-size:18.2554px;">location</text>
	</g>
	<text transform="matrix(1 0 0 1 275.5924 236.6149)" style="fill:#06687F; font-family:'Rubik-Regular'; font-size:28.8653px;">@</text>
	<path style="fill:#06687F;" d="M298.886,271.77c-5.775-5.488-12.733,1.802-16.218,6.396c-2.927,3.86-7.59,11.039-1.118,14.174
		c0.013,0.006,0.026,0.005,0.039,0.01c0.137,0.09,0.312,0.097,0.447-0.073c1.217-1.534,2.434-3.069,3.65-4.603
		c0.147-0.186,0.147-0.379,0-0.567c-3.763-4.8,3.706-13.826,8.882-10.251c0.136,0.094,0.377,0.064,0.486-0.063
		c1.277-1.486,2.555-2.971,3.832-4.457C299.025,272.176,299.053,271.928,298.886,271.77z"/>
	<g>
		<path style="fill:#06687F;" d="M294.808,329.534c-0.007-0.087-0.019-0.173-0.03-0.259c-0.014-0.101-0.028-0.201-0.046-0.299
			c-0.018-0.103-0.039-0.205-0.063-0.306c-0.28-1.292-0.863-2.333-1.74-3.06c-1.113-1.069-2.621-1.73-4.286-1.73
			c-3.279,0-5.956,2.552-6.17,5.777c-0.565,5.464,3.997,13.572,5.316,15.783c0.167,0.28,0.568,0.293,0.764,0.033
			C293.236,339.248,295.229,333.459,294.808,329.534z"/>
		<circle style="fill:#D5E9F2;" cx="288.644" cy="330.925" r="4.844"/>
	</g>
</g>
<g id="DESIGNED_BY_FREEPIK">
</g>
</svg>
